<svg width="64" height="64" viewBox="0 0 64 64" fill="none" xmlns="http://www.w3.org/2000/svg">
<path d="M48.9167 43.8417C51.8533 43.2454 54.4636 41.5792 56.2408 39.1666C58.0181 36.7539 58.8355 33.767 58.5343 30.7856C58.2332 27.8043 56.835 25.0411 54.6111 23.0327C52.3873 21.0242 49.4965 19.9137 46.5 19.9167H43.455C42.6543 16.8169 41.0964 13.9644 38.9211 11.6154C36.7458 9.26637 34.0211 7.49435 30.9918 6.4584C27.9625 5.42246 24.7234 5.15502 21.5652 5.6801C18.407 6.20519 15.4286 7.50635 12.8975 9.46678C11.2101 10.7737 7.94364 14.9279 7.06347 16.9121C5.76525 19.8386 5.21413 23.0417 5.45957 26.2338C5.70501 29.4259 6.73934 32.5071 8.46969 35.2008C10.2 37.8945 12.5723 40.1162 15.3733 41.6667" fill="#D9D9D9"/>
<path d="M48.9167 43.8417C51.8533 43.2454 54.4636 41.5792 56.2408 39.1666C58.0181 36.7539 58.8355 33.767 58.5343 30.7856C58.2332 27.8043 56.835 25.0411 54.6111 23.0327C52.3873 21.0242 49.4965 19.9137 46.5 19.9167H43.455C42.6543 16.8169 41.0964 13.9644 38.9211 11.6154C36.7458 9.26637 34.0211 7.49435 30.9918 6.4584C27.9625 5.42246 24.7234 5.15502 21.5652 5.6801C18.407 6.20519 15.4286 7.50635 12.8975 9.46678C11.2101 10.7737 7.94364 14.9279 7.06347 16.9121C5.76525 19.8386 5.21413 23.0417 5.45957 26.2338C5.70501 29.4259 6.73934 32.5071 8.46969 35.2008C10.2 37.8945 12.5723 40.1162 15.3733 41.6667L19 43.8417H43.455H48.9167Z" stroke="#1E1E1E" stroke-width="4" stroke-linecap="round" stroke-linejoin="round"/>
<path d="M31 37.25L39.75 46L43.5 42.25L34.75 33.5L31 37.25Z" fill="#D9D9D9"/>
<path d="M38.5 44.75L36.625 54.125L18.5 58.5L22.875 40.375L32.25 38.5L38.5 44.75Z" fill="#D9D9D9"/>
<path d="M18.5 58.5L27.9825 49.0175L18.5 58.5Z" fill="#D9D9D9"/>
<path d="M29.75 44.75C31.1307 44.75 32.25 45.8693 32.25 47.25C32.25 48.6307 31.1307 49.75 29.75 49.75C28.3693 49.75 27.25 48.6307 27.25 47.25C27.25 45.8693 28.3693 44.75 29.75 44.75Z" fill="#D9D9D9"/>
<path d="M18.5 58.5L36.625 54.125L38.5 44.75L32.25 38.5L22.875 40.375L18.5 58.5ZM18.5 58.5L27.9825 49.0175M31 37.25L39.75 46L43.5 42.25L34.75 33.5L31 37.25ZM32.25 47.25C32.25 45.8693 31.1307 44.75 29.75 44.75C28.3693 44.75 27.25 45.8693 27.25 47.25C27.25 48.6307 28.3693 49.75 29.75 49.75C31.1307 49.75 32.25 48.6307 32.25 47.25Z" stroke="#1E1E1E" stroke-width="3" stroke-linecap="round" stroke-linejoin="round"/>
</svg>
